#!OML:ASF E:\VariousWalksJay\Project 1\Capture day 1\Session 1\Actor2.ASF
:FULLY-SPECIFIED
:DEGREES
931
root -9.36475 16.1653 33.6535 26.5123 -46.7402 -11.1216
lowerback 22.2369 -4.03353 5.47675
upperback 14.989 -4.96099 -3.48451
thorax 3.43319 -2.20372 -5.93064
lowerneck -3.41656 3.9237 3.12276
upperneck -5.64563 5.25411 2.79631
head -1.16627 2.51743 0.345207
rclavicle 8.42847e-014 -9.85972e-014
rhumerus -47.049 22.455 -93.2821
rradius 84.4688
rwrist 16.0611
rhand -45.4759 13.4409
rfingers 7.12502
rthumb -18.2416 -15.7237
lclavicle 8.42847e-014 -9.85972e-014
lhumerus 18.3653 -43.342 65.2601
lradius 85.7941
lwrist 41.1682
lhand -40.5706 1.52962
lfingers 7.12502
lthumb -13.5178 31.0709
rfemur -23.8383 4.57598 23.0297
rtibia 57.3964
rfoot -18.3423 -9.86268
rtoes -28.8714
lfemur -57.2585 15.6884 -24.313
ltibia 33.5551
lfoot -0.94249 1.95919
ltoes -9.55399
932
root -9.4083 16.1886 33.7672 26.4782 -46.9029 -11.1087
lowerback 22.1583 -3.98011 5.32621
upperback 14.9501 -4.92041 -3.53234
thorax 3.43558 -2.19228 -5.90812
lowerneck -3.45954 3.92162 3.10852
upperneck -5.47815 5.24615 2.86952
head -1.1093 2.51715 0.372544
rclavicle -1.74931e-014 7.95139e-014
rhumerus -47.257 22.4555 -93.4064
rradius 84.2137
rwrist 15.943
rhand -45.5515 13.5591
rfingers 7.12502
rthumb -18.3143 -15.5987
lclavicle -1.74931e-014 7.95139e-014
lhumerus 17.9828 -43.5741 65.5356
lradius 85.7235
lwrist 41.1268
lhand -40.5995 1.43428
lfingers 7.12502
lthumb -13.5456 30.9737
rfemur -23.687 4.4558 22.7054
rtibia 57.4972
rfoot -16.9994 -9.49002
rtoes -28.6815
lfemur -57.0444 15.8307 -24.4006
ltibia 34.1214
lfoot -1.41105 1.69677
ltoes -9.35338
933
root -9.45066 16.2118 33.8782 26.4594 -47.0878 -11.0969
lowerback 22.0871 -3.91241 5.14565
upperback 14.9087 -4.8661 -3.57872
thorax 3.43499 -2.17637 -5.86918
lowerneck -3.49784 3.91738 3.10275
upperneck -5.33462 5.23548 2.92903
head -1.06008 2.51494 0.393939
rclavicle -2.22639e-014 8.5875e-014
rhumerus -47.4223 22.458 -93.5174
rradius 83.9748
rwrist 15.8337
rhand -45.62 13.6684
rfingers 7.12502
rthumb -18.3801 -15.4833
lclavicle -2.22639e-014 8.5875e-014
lhumerus 17.6616 -43.7874 65.7595
lradius 85.6477
lwrist 41.1194
lhand -40.631 1.3292
lfingers 7.12502
lthumb -13.576 30.8666
rfemur -23.6349 4.35768 22.3586
rtibia 57.7068
rfoot -15.5821 -9.05672
rtoes -28.3157
lfemur -56.8278 15.9684 -24.4677
ltibia 34.6526
lfoot -1.86013 1.42762
ltoes -9.259
934
root -9.49171 16.2341 33.9865 26.4632 -47.2865 -11.0908
lowerback 22.0128 -3.83328 4.9542
upperback 14.8647 -4.79888 -3.62248
thorax 3.43552 -2.15487 -5.82377
lowerneck -3.53386 3.90654 3.09394
upperneck -5.20635 5.21655 2.98975
head -1.01621 2.50827 0.415927
rclavicle 2.06736e-014 2.22639e-014
rhumerus -47.5552 22.458 -93.6131
rradius 83.7595
rwrist 15.7419
rhand -45.6923 13.7421
rfingers 7.12502
rthumb -18.4497 -15.4029
lclavicle 2.06736e-014 2.22639e-014
lhumerus 17.4098 -43.9901 65.9279
lradius 85.5713
lwrist 41.1409
lhand -40.6668 1.2266
lfingers 7.12502
lthumb -13.6105 30.7617
rfemur -23.6858 4.29404 21.9998
rtibia 58.026
rfoot -14.0956 -8.60184
rtoes -27.8081
lfemur -56.6204 16.0918 -24.5099
ltibia 35.1541
lfoot -2.27572 1.14901
ltoes -9.28802
935
root -9.53135 16.2559 34.092 26.4863 -47.4925 -11.0866
lowerback 21.9404 -3.74665 4.74788
upperback 14.8173 -4.72399 -3.66397
thorax 3.43303 -2.13074 -5.76856
lowerneck -3.56481 3.89519 3.0983
upperneck -5.09932 5.19696 3.03517
head -0.979041 2.50067 0.430783
rclavicle -5.40694e-014 8.5875e-014
rhumerus -47.6552 22.4603 -93.6966
rradius 83.5662
rwrist 15.6602
rhand -45.7628 13.8117
rfingers 7.12502
rthumb -18.5175 -15.327
lclavicle -5.40694e-014 8.5875e-014
lhumerus 17.2164 -44.18 66.0444
lradius 85.4967
lwrist 41.1746
lhand -40.7013 1.14716
lfingers 7.12502
lthumb -13.6438 30.68
rfemur -23.8387 4.24741 21.6317
rtibia 58.453
rfoot -12.5501 -8.12691
rtoes -27.1433
lfemur -56.4246 16.1976 -24.5303
ltibia 35.6293
lfoot -2.64976 0.84788
ltoes -9.38924
936
root -9.56949 16.2768 34.1945 26.5294 -47.6981 -11.0886
lowerback 21.8739 -3.6591 4.53674
upperback 14.7662 -4.64797 -3.70471
thorax 3.42388 -2.10656 -5.70928
lowerneck -3.59194 3.88605 3.10979
upperneck -5.01008 5.18051 3.06754
head -0.947512 2.49423 0.440247
rclavicle -4.29375e-014 -2.54444e-014
rhumerus -47.7287 22.4714 -93.7777
rradius 83.3933
rwrist 15.6026
rhand -45.8446 13.8772
rfingers 7.12502
rthumb -18.5962 -15.254
lclavicle -4.29375e-014 -2.54444e-014
lhumerus 17.0741 -44.3513 66.1085
lradius 85.43
lwrist 41.2118
lhand -40.7374 1.08747
lfingers 7.12502
lthumb -13.6785 30.618
rfemur -24.0901 4.21873 21.2634
rtibia 58.9853
rfoot -10.9642 -7.64508
rtoes -26.2925
lfemur -56.2418 16.2761 -24.5195
ltibia 36.0825
lfoot -2.98334 0.524107
ltoes -9.52486
937
root -9.60604 16.2967 34.294 26.5869 -47.8934 -11.0918
lowerback 21.8111 -3.56961 4.32674
upperback 14.7117 -4.56852 -3.73977
thorax 3.40968 -2.08086 -5.64459
lowerneck -3.61874 3.8726 3.11737
upperneck -4.92981 5.15886 3.10753
head -0.919174 2.48494 0.452519
rclavicle 4.29375e-014 -6.20208e-014
rhumerus -47.7798 22.4826 -93.8422
rradius 83.2464
rwrist 15.5475
rhand -45.9219 13.9329
rfingers 7.12502
rthumb -18.6706 -15.1911
lclavicle 4.29375e-014 -6.20208e-014
lhumerus 16.9865 -44.5177 66.1268
lradius 85.3723
lwrist 41.2475
lhand -40.7742 1.04506
lfingers 7.12502
lthumb -13.7141 30.5732
rfemur -24.4366 4.18833 20.8991
rtibia 59.6178
rfoot -9.34085 -7.17931
rtoes -25.3293
lfemur -56.0665 16.3185 -24.4787
ltibia 36.51
lfoot -3.28704 0.163785
ltoes -9.79346
